<svg data-v-2cb57da0="" version="1.0" xmlns="http://www.w3.org/2000/svg" xmlns:xlink="http://www.w3.org/1999/xlink" width="100%" height="100%" viewBox="0 0 340.000000 250.000000" preserveAspectRatio="xMidYMid meet" color-interpolation-filters="sRGB" style="margin: auto;"><rect data-v-2cb57da0="" x="0" y="0" width="100%" height="100%" fill="#ffffff" fill-opacity="1" class="background"></rect> <!----> <g data-v-2cb57da0="" fill="#333333" class="endsvg" transform="translate(48.91999816894531,106.17499923706055)"><!----> <g class="tp-name"><g><rect data-gra="graph-name-bg" stroke-width="2" class="i-icon-bg" x="0" y="0" width="242.16000366210938" height="37.650001525878906" fill-opacity="0"></rect> <!----> <!----> </g> <g transform="translate(0,0)"><g data-gra="path-name-bg"><g><rect data-gra="graph-name-bg" stroke-width="2" class="i-icon-bg" x="0" y="0" width="143.75999450683594" height="37.650001525878906" fill-opacity="0"></rect> <!----> <!----> </g> <g transform="translate(5,7)"><rect data-gra="graph-name-bg" x="0" y="-7" width="133.75999450683594" height="2" fill="#333333"></rect> <rect data-gra="graph-name-bg" x="0" y="28.650001525878906" width="133.75999450683594" height="2" fill="#333333"></rect> <g data-gra="path-name" fill="#333333"><g transform="scale(1)"><path d="M16.75 0L7.18-17.21L7.18 0L2.39 0L2.39-23.47L8.80-23.47L18.12-5.98L18.12-23.47L22.87-23.47L22.87 0L16.75 0ZM36.84-23.47L45.25-23.47L45.25-19.28L38.74-19.28Q36.21-19.28 35.05-18.93Q33.89-18.58 33.11-17.56L33.11-17.56Q32.59-16.86 32.39-16.15Q32.20-15.45 32.06-13.76L32.06-13.76L45.25-13.76L45.25-9.57L32.06-9.57Q32.34-6.55 33.85-5.37Q35.37-4.19 38.99-4.19L38.99-4.19L45.25-4.19L45.25 0L38.74 0Q36.10 0 34.10-0.32L34.10-0.32Q30.93-0.84 29.07-3.10L29.07-3.10Q26.39-6.33 26.39-11.86L26.39-11.86Q26.39-17.98 30.16-21.40L30.16-21.40Q31.46-22.56 32.92-23.01Q34.38-23.47 36.84-23.47L36.84-23.47ZM47.26-23.47L52.43-23.47L57.71-5.81L62.64-23.47L68.20-23.47L73.12-5.81L78.40-23.47L83.54-23.47L75.97 0L70.27 0L65.42-16.93L60.56 0L54.86 0L47.26-23.47ZM99.38 0L86.39 0L86.39-23.47L99.66-23.47Q102.79-23.47 104.20-22.73L104.20-22.73Q105.85-21.92 106.70-20.02L106.70-20.02Q107.29-18.72 107.29-17.31L107.29-17.31Q107.29-15.48 106.33-13.90Q105.36-12.32 103.88-11.72L103.88-11.72Q107.29-10.17 107.29-6.19L107.29-6.19Q107.29-3.91 106.20-2.36L106.20-2.36Q105.25-1.02 103.77-0.51Q102.30 0 99.38 0L99.38 0ZM91.39-19.28L91.39-13.83L98.18-13.83Q99.27-13.83 99.75-13.94Q100.22-14.04 100.68-14.39L100.68-14.39Q101.77-15.24 101.77-16.72L101.77-16.72Q101.77-18.12 100.75-18.79L100.75-18.79Q100.01-19.28 98.28-19.28L98.28-19.28L91.39-19.28ZM91.39-9.64L91.39-4.19L98.18-4.19Q99.27-4.19 99.76-4.29Q100.26-4.40 100.68-4.75L100.68-4.75Q101.77-5.60 101.77-7.07L101.77-7.07Q101.77-8.48 100.75-9.15L100.75-9.15Q100.01-9.64 98.28-9.64L98.28-9.64L91.39-9.64ZM120.14-23.47L128.55-23.47L128.55-19.28L122.04-19.28Q119.50-19.28 118.34-18.93Q117.18-18.58 116.41-17.56L116.41-17.56Q115.88-16.86 115.69-16.15Q115.49-15.45 115.35-13.76L115.35-13.76L128.55-13.76L128.55-9.57L115.35-9.57Q115.63-6.55 117.15-5.37Q118.66-4.19 122.28-4.19L122.28-4.19L128.55-4.19L128.55 0L122.04 0Q119.40 0 117.39-0.32L117.39-0.32Q114.23-0.84 112.36-3.10L112.36-3.10Q109.69-6.33 109.69-11.86L109.69-11.86Q109.69-17.98 113.45-21.40L113.45-21.40Q114.75-22.56 116.21-23.01Q117.67-23.47 120.14-23.47L120.14-23.47ZM131.89-4.57L136.15-4.57L136.15 0L131.89 0L131.89-4.57Z" transform="translate(-2.392900856793146, 23.471542227662184)"></path></g></g></g></g> <g data-gra="path-name-1-bg" transform="translate(143.75999450683594,0)" mask="url(#a2c174c3-197d-48fb-9fda-4c1fbbee8e4c)"><g><rect data-gra="graph-name-bg" stroke-width="2" class="i-icon-bg" x="0" y="0" width="98.4000015258789" height="37.650001525878906" fill="#fa3913"></rect> <!----> <!----> </g> <g transform="translate(5,7)"><g data-gra="path-name-1" fill="#fa3913"><g transform="scale(1)"><path d="M15.41-8.20L7.39-8.20L7.39 0L2.39 0L2.39-23.47L14.11-23.47Q17.31-23.47 18.69-23.01L18.69-23.01Q21.01-22.24 22.35-19.81L22.35-19.81Q23.33-17.98 23.33-15.84L23.33-15.84Q23.33-14.04 22.68-12.44Q22.03-10.84 20.87-9.82L20.87-9.82Q19.81-8.90 18.63-8.55Q17.45-8.20 15.41-8.20L15.41-8.20ZM7.39-19.28L7.39-12.39L14.18-12.39Q16.01-12.39 16.75-12.95L16.75-12.95Q17.84-13.83 17.84-16.01L17.84-16.01Q17.84-18.37 16.19-19.04L16.19-19.04Q15.59-19.28 14.29-19.28L14.29-19.28L7.39-19.28ZM26.22-10.28L26.22-23.47L31.18-23.47L31.18-10.28Q31.28-7.78 31.39-6.97L31.39-6.97Q31.64-5.35 32.94-4.77Q34.24-4.19 37.51-4.19L37.51-4.19L42.30-4.19L42.30 0L36.98 0Q33.22 0 31.53-0.42L31.53-0.42Q27.66-1.55 26.60-5.35L26.60-5.35Q26.22-6.83 26.22-10.28L26.22-10.28ZM44.94-23.47L49.90-23.47L49.90-9.40Q49.90-7.71 50.18-6.77Q50.46-5.84 51.13-5.17L51.13-5.17Q52.61-3.73 55.25-3.73L55.25-3.73Q56.94-3.73 58.19-4.31Q59.44-4.89 59.93-5.88L59.93-5.88Q60.42-6.86 60.42-9.40L60.42-9.40L60.42-23.47L65.42-23.47L65.42-9.64Q65.42-6.90 64.84-5.12Q64.26-3.34 63.06-2.25L63.06-2.25Q60.28 0.18 55.18 0.18L55.18 0.18Q49.72 0.18 47.22-2.22L47.22-2.22Q45.92-3.45 45.43-4.98Q44.94-6.51 44.94-9.29L44.94-9.29L44.94-23.47ZM81.64 0L69.85 0L69.85-4.19L80.58-4.19Q83.15-4.19 84.00-4.68L84.00-4.68Q85.23-5.42 85.23-6.90L85.23-6.90Q85.23-8.62 83.79-9.40L83.79-9.40Q82.98-9.85 81.18-9.85L81.18-9.85L76.82-9.85Q72.84-9.85 71.08-11.30L71.08-11.30Q69.99-12.21 69.38-13.58Q68.76-14.96 68.76-16.54L68.76-16.54Q68.76-19.00 70.20-21.04L70.20-21.04Q71.61-23.01 74.71-23.37L74.71-23.37Q75.76-23.47 77.84-23.47L77.84-23.47L89.49-23.47L89.49-19.28L78.97-19.28Q76.61-19.25 75.83-19.07L75.83-19.07Q74.25-18.69 74.25-16.68L74.25-16.68Q74.25-14.99 75.59-14.43L75.59-14.43Q76.47-14.01 78.54-14.01L78.54-14.01L82.31-14.01Q85.19-14.01 86.60-13.51L86.60-13.51Q89.10-12.67 90.05-10.56L90.05-10.56Q90.79-8.87 90.79-6.93L90.79-6.93Q90.79-4.79 89.80-3.10L89.80-3.10Q88.43-0.70 85.69-0.21L85.69-0.21Q84.35 0 81.64 0L81.64 0Z" transform="translate(-2.3929008567931462, 23.471542227662184)"></path></g></g></g></g></g></g> <!----> <!----> <!----> <!----> <!----></g><mask id="a2c174c3-197d-48fb-9fda-4c1fbbee8e4c"><g fill="white"><rect data-gra="graph-name-bg" stroke-width="2" class="i-icon-bg" x="0" y="0" width="98.4000015258789" height="37.650001525878906"></rect>   </g> <g transform="translate(5,7)" fill="black"><g data-gra="path-name-1"><g transform="scale(1)"><path d="M15.41-8.20L7.39-8.20L7.39 0L2.39 0L2.39-23.47L14.11-23.47Q17.31-23.47 18.69-23.01L18.69-23.01Q21.01-22.24 22.35-19.81L22.35-19.81Q23.33-17.98 23.33-15.84L23.33-15.84Q23.33-14.04 22.68-12.44Q22.03-10.84 20.87-9.82L20.87-9.82Q19.81-8.90 18.63-8.55Q17.45-8.20 15.41-8.20L15.41-8.20ZM7.39-19.28L7.39-12.39L14.18-12.39Q16.01-12.39 16.75-12.95L16.75-12.95Q17.84-13.83 17.84-16.01L17.84-16.01Q17.84-18.37 16.19-19.04L16.19-19.04Q15.59-19.28 14.29-19.28L14.29-19.28L7.39-19.28ZM26.22-10.28L26.22-23.47L31.18-23.47L31.18-10.28Q31.28-7.78 31.39-6.97L31.39-6.97Q31.64-5.35 32.94-4.77Q34.24-4.19 37.51-4.19L37.51-4.19L42.30-4.19L42.30 0L36.98 0Q33.22 0 31.53-0.42L31.53-0.42Q27.66-1.55 26.60-5.35L26.60-5.35Q26.22-6.83 26.22-10.28L26.22-10.28ZM44.94-23.47L49.90-23.47L49.90-9.40Q49.90-7.71 50.18-6.77Q50.46-5.84 51.13-5.17L51.13-5.17Q52.61-3.73 55.25-3.73L55.25-3.73Q56.94-3.73 58.19-4.31Q59.44-4.89 59.93-5.88L59.93-5.88Q60.42-6.86 60.42-9.40L60.42-9.40L60.42-23.47L65.42-23.47L65.42-9.64Q65.42-6.90 64.84-5.12Q64.26-3.34 63.06-2.25L63.06-2.25Q60.28 0.18 55.18 0.18L55.18 0.18Q49.72 0.18 47.22-2.22L47.22-2.22Q45.92-3.45 45.43-4.98Q44.94-6.51 44.94-9.29L44.94-9.29L44.94-23.47ZM81.64 0L69.85 0L69.85-4.19L80.58-4.19Q83.15-4.19 84.00-4.68L84.00-4.68Q85.23-5.42 85.23-6.90L85.23-6.90Q85.23-8.62 83.79-9.40L83.79-9.40Q82.98-9.85 81.18-9.85L81.18-9.85L76.82-9.85Q72.84-9.85 71.08-11.30L71.08-11.30Q69.99-12.21 69.38-13.58Q68.76-14.96 68.76-16.54L68.76-16.54Q68.76-19.00 70.20-21.04L70.20-21.04Q71.61-23.01 74.71-23.37L74.71-23.37Q75.76-23.47 77.84-23.47L77.84-23.47L89.49-23.47L89.49-19.28L78.97-19.28Q76.61-19.25 75.83-19.07L75.83-19.07Q74.25-18.69 74.25-16.68L74.25-16.68Q74.25-14.99 75.59-14.43L75.59-14.43Q76.47-14.01 78.54-14.01L78.54-14.01L82.31-14.01Q85.19-14.01 86.60-13.51L86.60-13.51Q89.10-12.67 90.05-10.56L90.05-10.56Q90.79-8.87 90.79-6.93L90.79-6.93Q90.79-4.79 89.80-3.10L89.80-3.10Q88.43-0.70 85.69-0.21L85.69-0.21Q84.35 0 81.64 0L81.64 0Z" transform="translate(-2.3929008567931462, 23.471542227662184)"></path></g></g></g></mask><defs v-gra="od"></defs></svg>