<?xml version="1.0" standalone="no"?><!DOCTYPE svg PUBLIC "-//W3C//DTD SVG 1.1//EN" "http://www.w3.org/Graphics/SVG/1.1/DTD/svg11.dtd"><svg class="icon" width="200px" height="200.00px" viewBox="0 0 1024 1024" version="1.1" xmlns="http://www.w3.org/2000/svg"><path fill="#333333" d="M319.9 472.2l-51.2-63h-64l83.2 102.4L204.8 614h64l51.2-63 51.2 63h64L352 511.6l83.2-102.4h-64l-51.3 63zM204.8 716.4h-51.2c-14.1 0-25.6-11.5-25.6-25.6V332.4c0-14.1 11.5-25.6 25.6-25.6h51.2V153.2c0-28.3 22.9-51.2 51.2-51.2h588.8c28.3 0 51.2 22.9 51.2 51.2V870c0 28.3-22.9 51.2-51.2 51.2H255.9c-28.3 0-51.2-22.9-51.2-51.2V716.4z m25.5 0V870c0 14.1 11.5 25.6 25.6 25.6h588.8c14.1 0 25.6-11.5 25.6-25.6V153.2c0-14.1-11.5-25.6-25.6-25.6H255.9c-14.1 0-25.6 11.5-25.6 25.6v153.6h256c14.1 0 25.6 11.5 25.6 25.6v358.4c0 14.1-11.5 25.6-25.6 25.6h-256z m358.5-320h204.8c7.1 0 12.8 5.7 12.8 12.8 0 7.1-5.7 12.8-12.8 12.8H588.8c-7.1 0-12.8-5.7-12.8-12.8-0.1-7.1 5.7-12.8 12.8-12.8z m0 102.4h204.8c7.1 0 12.8 5.7 12.8 12.8 0 7.1-5.7 12.8-12.8 12.8H588.8c-7.1 0-12.8-5.7-12.8-12.8-0.1-7.1 5.7-12.8 12.8-12.8z m0 102.4h204.8c7.1 0 12.8 5.7 12.8 12.8 0 7.1-5.7 12.8-12.8 12.8H588.8c-7.1 0-12.8-5.7-12.8-12.8-0.1-7.1 5.7-12.8 12.8-12.8z m0 0"  /></svg>